<?xml version="1.0" encoding="utf-8"?>
<svg version="1.1" xmlns="http://www.w3.org/2000/svg" xmlns:xlink="http://www.w3.org/1999/xlink" x="0px"
	 y="0px" viewBox="0 0 228 68" style="enable-background:new 0 0 228 68;" xml:space="preserve">
<style type="text/css">
	.st0{fill:#686058;}
</style>
<g>
	<path class="st0" d="M36.19,35.1c-1.39-1.39-2.98-2.58-4.74-3.54c-1.76-0.96-3.58-1.83-5.43-2.59c-1.85-0.76-3.66-1.5-5.43-2.22
		c-1.77-0.72-3.37-1.54-4.77-2.45c-1.4-0.9-2.54-1.98-3.38-3.2c-0.85-1.22-1.28-2.74-1.28-4.51c0-2.25,0.26-3.89,0.81-5
		c0.54-1.09,1.19-1.94,1.92-2.52c0.72-0.51,1.72-0.88,3.06-1.13c1.31-0.25,2.86-0.37,4.58-0.37c2.21,0,4.63,0.3,7.18,0.9
		c2.41,0.56,4.78,1.24,7.02,2.02l0.27,0.09l1.88-7.33l-0.27-0.05c-2.1-0.42-4.22-0.77-6.33-1.04c-2.22-0.29-4.62-0.43-7.15-0.43
		c-3.14,0-5.99,0.51-8.46,1.51c-2.47,1-4.58,2.3-6.28,3.88c-1.69,1.57-3.01,3.35-3.91,5.29c-0.9,1.94-1.35,3.89-1.35,5.81
		c0,2.78,0.42,5.16,1.26,7.07c0.83,1.92,1.96,3.58,3.35,4.95c1.38,1.36,2.98,2.52,4.74,3.45c1.76,0.92,3.58,1.77,5.4,2.53
		c1.82,0.76,3.63,1.5,5.4,2.22c1.77,0.72,3.37,1.56,4.77,2.51c1.4,0.95,2.54,2.11,3.38,3.45c0.85,1.34,1.28,3.01,1.28,4.94
		c0,1.47-0.1,2.76-0.31,3.81c-0.21,1.05-0.49,1.94-0.84,2.64c-0.36,0.71-0.77,1.28-1.22,1.69c-0.46,0.42-0.94,0.77-1.43,1.06
		c-0.91,0.54-2.09,1-3.5,1.36c-1.42,0.37-3.14,0.56-5.11,0.56c-1.45,0-2.96-0.2-4.49-0.59c-1.54-0.39-3.05-0.88-4.49-1.45
		c-1.43-0.57-2.81-1.21-4.08-1.89c-1.12-0.6-2.12-1.18-2.95-1.73L5.03,54.6L2,61.88l0.2,0.11c2.39,1.33,4.96,2.4,7.67,3.18
		c2.8,0.82,6.02,1.23,9.58,1.23c3.39,0,6.44-0.56,9.08-1.66c2.63-1.1,4.89-2.57,6.71-4.37c1.82-1.8,3.22-3.86,4.15-6.12
		c0.94-2.27,1.41-4.62,1.41-6.98c0-2.78-0.42-5.18-1.26-7.13C38.71,38.19,37.58,36.49,36.19,35.1z"/>
	<path class="st0" d="M97.89,21.2c-2.07-2.25-4.69-4-7.78-5.2c-3.09-1.2-6.74-1.8-10.86-1.8c-4.15,0-7.78,0.61-10.81,1.8
		c-3.03,1.2-5.57,2.95-7.54,5.2c-1.97,2.25-3.44,5.01-4.37,8.21c-0.93,3.18-1.4,6.81-1.4,10.79s0.46,7.63,1.37,10.86
		c0.91,3.24,2.36,6.06,4.29,8.38c1.93,2.32,4.45,4.14,7.49,5.4c3.03,1.26,6.68,1.9,10.86,1.9c4.11,0,7.77-0.62,10.88-1.85
		c3.11-1.23,5.74-3.02,7.81-5.32c2.06-2.3,3.64-5.12,4.69-8.38c1.04-3.25,1.57-6.95,1.57-10.99c0-3.98-0.52-7.61-1.55-10.79
		C101.52,26.21,99.95,23.45,97.89,21.2z M79.15,62.25c-3.08,0-5.69-0.56-7.74-1.65c-2.05-1.1-3.71-2.63-4.94-4.57
		c-1.23-1.95-2.13-4.3-2.67-6.98c-0.54-2.7-0.81-5.68-0.81-8.85c0-2.07,0.07-4.09,0.2-6.01c0.13-1.91,0.35-3.7,0.64-5.33
		c0.29-1.61,0.69-3.04,1.17-4.24c0.48-1.18,1.07-2.08,1.76-2.68c1.29-1.09,3.05-1.93,5.25-2.48c2.22-0.55,4.65-0.84,7.23-0.84
		c2.95,0,5.53,0.53,7.65,1.56c2.12,1.03,3.89,2.51,5.26,4.38c1.38,1.88,2.41,4.17,3.06,6.8c0.65,2.65,0.98,5.61,0.98,8.82
		c0,1.96-0.07,3.94-0.22,5.88c-0.15,1.93-0.39,3.75-0.72,5.4c-0.33,1.65-0.74,3.12-1.23,4.37c-0.48,1.22-1.07,2.13-1.76,2.7
		c-1.61,1.39-3.47,2.36-5.53,2.9C84.68,61.98,82.12,62.25,79.15,62.25z"/>
	<path class="st0" d="M158.03,34.07c0,0.93,0.01,1.96,0.02,3.05c0.02,1.14,0.03,2.36,0.05,3.64c0.02,1.3,0.02,2.58,0.02,3.82
		c0.03,2.83,0.08,5.87,0.14,9.04L122.77,14.6l-0.08-0.08h-3.4v51.65h5.08V48.8c0-0.3-0.01-0.85-0.02-1.64
		c-0.02-0.79-0.03-1.73-0.05-2.83c-0.02-1.09-0.03-2.29-0.05-3.59c-0.02-1.31-0.04-2.63-0.07-3.95c-0.06-2.75-0.12-5.93-0.19-9.69
		l35.54,39.23l0.08,0.09h3.5v-51.5h-5.08V34.07z"/>
	<path class="st0" d="M224.85,29.4c-1.03-3.19-2.6-5.95-4.67-8.2c-2.07-2.25-4.69-4-7.78-5.2c-3.09-1.2-6.74-1.8-10.86-1.8
		c-4.15,0-7.78,0.61-10.81,1.8c-3.03,1.2-5.57,2.95-7.54,5.2c-1.97,2.25-3.44,5.01-4.37,8.21c-0.93,3.18-1.4,6.81-1.4,10.79
		c0,3.97,0.46,7.63,1.37,10.86c0.91,3.24,2.36,6.06,4.29,8.38c1.93,2.32,4.45,4.14,7.49,5.4c3.03,1.26,6.68,1.9,10.86,1.9
		c4.11,0,7.77-0.62,10.88-1.85c3.11-1.23,5.74-3.02,7.81-5.32c2.06-2.3,3.64-5.12,4.69-8.38c1.04-3.25,1.57-6.95,1.57-10.99
		C226.4,36.22,225.88,32.59,224.85,29.4z M218.5,40.19c0,1.97-0.07,3.95-0.22,5.88c-0.15,1.93-0.39,3.75-0.72,5.4
		c-0.33,1.65-0.74,3.12-1.23,4.37c-0.48,1.22-1.07,2.13-1.76,2.7c-1.61,1.39-3.47,2.36-5.53,2.9c-2.07,0.54-4.62,0.81-7.6,0.81
		c-3.08,0-5.69-0.56-7.74-1.65c-2.05-1.1-3.71-2.63-4.94-4.57c-1.23-1.95-2.13-4.3-2.67-6.98c-0.54-2.7-0.81-5.68-0.81-8.85
		c0-2.07,0.07-4.09,0.2-6.01c0.13-1.91,0.35-3.7,0.64-5.33c0.29-1.61,0.69-3.03,1.17-4.24c0.48-1.18,1.07-2.08,1.76-2.68
		c1.29-1.09,3.05-1.93,5.25-2.48c2.22-0.55,4.65-0.84,7.23-0.84c2.95,0,5.53,0.53,7.65,1.56c2.12,1.03,3.89,2.51,5.26,4.38
		c1.38,1.88,2.41,4.17,3.06,6.8C218.16,34.02,218.5,36.99,218.5,40.19z"/>
</g>
</svg>
