<?xml version="1.0" encoding="utf-8"?>
<svg version="1.1" xmlns="http://www.w3.org/2000/svg" xmlns:xlink="http://www.w3.org/1999/xlink" x="0px"
	 y="0px" viewBox="0 0 228 100" style="enable-background:new 0 0 228 100;" xml:space="preserve">
<style type="text/css">
	.st0{fill:#686058;}
</style>
<g>
	<g>
		<path class="st0" d="M28.09,97.84v-5.35h-6.33v5.35H20.2V86.33h1.56v5.32h6.33v-5.32h1.56v11.51H28.09z"/>
		<path class="st0" d="M46.37,92.04c0,0.91-0.12,1.74-0.35,2.47c-0.24,0.73-0.59,1.36-1.05,1.88c-0.46,0.52-1.05,0.91-1.75,1.19
			C42.51,97.86,41.7,98,40.77,98c-0.94,0-1.76-0.14-2.44-0.43c-0.68-0.28-1.24-0.69-1.67-1.21c-0.43-0.52-0.76-1.15-0.96-1.88
			c-0.21-0.73-0.31-1.55-0.31-2.45c0-0.9,0.1-1.71,0.31-2.43c0.21-0.72,0.54-1.33,0.98-1.84c0.44-0.51,1-0.89,1.69-1.16
			c0.68-0.27,1.49-0.4,2.43-0.4c0.93,0,1.74,0.13,2.44,0.4c0.7,0.27,1.28,0.66,1.74,1.16c0.46,0.51,0.81,1.12,1.05,1.84
			C46.25,90.33,46.37,91.14,46.37,92.04z M44.69,92.04c0-0.73-0.08-1.41-0.22-2.01c-0.15-0.61-0.38-1.13-0.7-1.56
			c-0.32-0.43-0.72-0.77-1.21-1.01c-0.49-0.24-1.08-0.36-1.76-0.36c-0.59,0-1.14,0.06-1.65,0.19c-0.51,0.13-0.91,0.32-1.21,0.57
			c-0.17,0.14-0.3,0.35-0.42,0.63c-0.11,0.28-0.2,0.6-0.27,0.97c-0.07,0.37-0.12,0.78-0.15,1.21c-0.03,0.44-0.04,0.89-0.04,1.37
			c0,0.73,0.06,1.4,0.19,2.02c0.12,0.62,0.33,1.15,0.61,1.6c0.28,0.45,0.66,0.8,1.14,1.06c0.48,0.25,1.07,0.38,1.78,0.38
			c0.68,0,1.26-0.06,1.74-0.19c0.48-0.12,0.9-0.35,1.28-0.67c0.16-0.13,0.3-0.35,0.42-0.63c0.11-0.29,0.21-0.62,0.28-1
			c0.07-0.38,0.13-0.79,0.16-1.23C44.67,92.94,44.69,92.49,44.69,92.04z"/>
		<path class="st0" d="M54.37,97.84V87.22l-3.54-0.06l0.11-0.83h8.53l-0.11,0.8l-3.43,0.09v10.62H54.37z"/>
		<path class="st0" d="M70.45,97.84H64.3V86.33h5.9l-0.11,0.83l-4.23,0.06v4.08l3.98,0.04l-0.11,0.73l-3.87,0.09v4.79l4.7,0.09
			L70.45,97.84z"/>
		<path class="st0" d="M75.88,97.84V86.33h1.56v10.63h4.37l-0.11,0.88H75.88z"/>
		<path class="st0" d="M93.49,94.5c0,0.43-0.09,0.86-0.26,1.28c-0.17,0.42-0.43,0.79-0.76,1.12c-0.33,0.33-0.74,0.6-1.23,0.8
			c-0.48,0.2-1.04,0.3-1.66,0.3c-0.65,0-1.23-0.08-1.75-0.22c-0.51-0.15-0.99-0.35-1.44-0.61l0.56-1.35
			c0.16,0.11,0.36,0.23,0.6,0.35c0.23,0.12,0.48,0.24,0.74,0.34c0.26,0.1,0.53,0.19,0.82,0.26c0.28,0.07,0.55,0.11,0.81,0.11
			c0.36,0,0.67-0.03,0.93-0.1c0.26-0.07,0.47-0.15,0.64-0.25c0.09-0.05,0.18-0.12,0.26-0.19c0.08-0.07,0.16-0.18,0.22-0.3
			c0.06-0.13,0.11-0.29,0.15-0.48c0.04-0.19,0.06-0.42,0.06-0.69c0-0.35-0.08-0.65-0.23-0.89c-0.15-0.24-0.36-0.45-0.61-0.62
			c-0.25-0.17-0.54-0.32-0.87-0.46c-0.32-0.13-0.65-0.27-0.98-0.4c-0.33-0.14-0.66-0.29-0.98-0.46c-0.32-0.17-0.61-0.38-0.87-0.63
			c-0.26-0.25-0.46-0.55-0.61-0.91c-0.15-0.35-0.23-0.78-0.23-1.29c0-0.35,0.08-0.71,0.25-1.06c0.16-0.36,0.4-0.68,0.71-0.97
			c0.31-0.29,0.69-0.52,1.15-0.71c0.45-0.18,0.97-0.28,1.55-0.28c0.46,0,0.9,0.03,1.3,0.08c0.4,0.05,0.81,0.12,1.21,0.2l-0.35,1.36
			c-0.43-0.15-0.87-0.28-1.34-0.39c-0.46-0.11-0.9-0.16-1.3-0.16c-0.31,0-0.59,0.02-0.83,0.07c-0.24,0.04-0.42,0.11-0.55,0.2
			c-0.13,0.11-0.25,0.26-0.35,0.46c-0.1,0.2-0.15,0.5-0.15,0.91c0,0.32,0.08,0.59,0.23,0.82c0.15,0.22,0.36,0.41,0.61,0.58
			c0.25,0.16,0.54,0.31,0.87,0.44c0.32,0.13,0.65,0.27,0.99,0.4c0.34,0.14,0.67,0.3,0.99,0.47c0.32,0.18,0.61,0.39,0.87,0.65
			c0.25,0.26,0.46,0.56,0.61,0.92C93.41,93.56,93.49,93.99,93.49,94.5z"/>
		<path class="st0" d="M102.36,94.86c0-0.76,0.2-1.42,0.59-1.96c0.39-0.54,0.99-1.02,1.79-1.45c-0.3-0.4-0.53-0.81-0.69-1.2
			c-0.16-0.4-0.24-0.84-0.24-1.33c0-0.38,0.07-0.73,0.21-1.06c0.14-0.32,0.33-0.6,0.58-0.84c0.25-0.24,0.55-0.42,0.9-0.56
			c0.35-0.13,0.73-0.2,1.15-0.2c0.48,0,0.89,0.06,1.23,0.17c0.34,0.11,0.61,0.26,0.83,0.46c0.21,0.19,0.37,0.41,0.47,0.66
			c0.1,0.25,0.15,0.52,0.15,0.79c0,0.34-0.07,0.66-0.21,0.94c-0.14,0.28-0.33,0.55-0.58,0.79c-0.25,0.25-0.54,0.48-0.88,0.7
			c-0.34,0.22-0.71,0.44-1.12,0.65c0.21,0.27,0.44,0.55,0.7,0.85c0.25,0.3,0.52,0.61,0.8,0.92c0.28,0.31,0.56,0.62,0.85,0.93
			c0.29,0.31,0.59,0.61,0.89,0.89c0.34-0.41,0.58-0.88,0.71-1.41c0.14-0.52,0.21-1.03,0.21-1.53c0-0.13-0.01-0.27-0.03-0.42
			c-0.02-0.15-0.05-0.28-0.08-0.37l1.3-0.28c0.04,0.11,0.07,0.24,0.09,0.4c0.02,0.17,0.03,0.32,0.03,0.47
			c0,0.64-0.15,1.26-0.44,1.88c-0.29,0.62-0.7,1.21-1.24,1.77c0.56,0.49,1.1,0.9,1.61,1.22c0.51,0.32,0.96,0.48,1.36,0.48h0.11v0.51
			c-0.17,0.06-0.37,0.11-0.63,0.15c-0.25,0.04-0.51,0.06-0.78,0.06c-0.43,0-0.88-0.13-1.34-0.38c-0.47-0.25-0.95-0.59-1.43-1.01
			c-0.58,0.44-1.19,0.78-1.8,1.02c-0.62,0.24-1.25,0.35-1.88,0.35c-0.53,0-1-0.08-1.39-0.25c-0.4-0.16-0.73-0.39-0.99-0.67
			c-0.27-0.28-0.47-0.61-0.6-0.98C102.43,95.68,102.36,95.28,102.36,94.86z M106.14,96.84c0.49,0,0.93-0.07,1.34-0.2
			c0.41-0.13,0.8-0.33,1.17-0.6c-0.31-0.29-0.61-0.6-0.92-0.93c-0.3-0.33-0.6-0.66-0.88-1c-0.28-0.33-0.56-0.66-0.82-0.99
			c-0.26-0.33-0.51-0.64-0.74-0.94c-0.26,0.18-0.47,0.36-0.64,0.53c-0.17,0.18-0.3,0.36-0.4,0.55c-0.1,0.19-0.17,0.39-0.21,0.61
			c-0.04,0.21-0.06,0.44-0.06,0.69c0,0.36,0.05,0.68,0.16,0.97c0.11,0.28,0.26,0.52,0.45,0.72c0.19,0.2,0.42,0.34,0.68,0.44
			C105.54,96.79,105.83,96.84,106.14,96.84z M105.91,90.6c0.02,0.04,0.05,0.07,0.07,0.1c0.03,0.03,0.05,0.06,0.07,0.1
			c0.4-0.21,0.74-0.4,1.01-0.58c0.27-0.18,0.49-0.36,0.65-0.54c0.16-0.18,0.28-0.37,0.35-0.58c0.07-0.21,0.11-0.44,0.11-0.71
			c0-0.45-0.13-0.8-0.39-1.05c-0.26-0.25-0.61-0.37-1.05-0.37c-0.19,0-0.38,0.03-0.57,0.09c-0.19,0.06-0.36,0.16-0.52,0.29
			c-0.15,0.13-0.28,0.31-0.38,0.53c-0.1,0.22-0.15,0.48-0.15,0.8c0,0.35,0.07,0.67,0.2,0.97C105.46,89.95,105.65,90.27,105.91,90.6z
			"/>
		<path class="st0" d="M125.46,92.99h-1.62v4.86h-1.56V86.35c0.47-0.04,0.99-0.07,1.56-0.09c0.57-0.02,1.13-0.03,1.67-0.03
			c0.67,0,1.25,0.07,1.74,0.21s0.9,0.35,1.23,0.62c0.32,0.27,0.56,0.6,0.72,0.99c0.16,0.39,0.24,0.83,0.24,1.33
			c0,0.48-0.07,0.91-0.2,1.28c-0.13,0.37-0.31,0.7-0.52,0.97c-0.22,0.28-0.47,0.51-0.77,0.71c-0.3,0.2-0.61,0.36-0.93,0.48
			c0.34,0.59,0.68,1.16,1,1.69c0.32,0.54,0.64,1.01,0.96,1.42c0.32,0.41,0.65,0.73,0.98,0.97c0.33,0.24,0.68,0.36,1.06,0.36h0.11
			v0.51c-0.16,0.06-0.37,0.11-0.63,0.15c-0.25,0.04-0.51,0.06-0.78,0.06c-0.37,0-0.69-0.05-0.96-0.15c-0.26-0.1-0.52-0.29-0.77-0.57
			c-0.25-0.28-0.52-0.67-0.82-1.16c-0.29-0.49-0.65-1.14-1.08-1.92L125.46,92.99z M124.32,92.19c0.7,0,1.28-0.04,1.71-0.12
			c0.44-0.08,0.77-0.2,1.01-0.35c0.1-0.07,0.2-0.16,0.29-0.27c0.09-0.11,0.17-0.26,0.23-0.43c0.06-0.18,0.11-0.39,0.15-0.64
			c0.03-0.25,0.05-0.55,0.05-0.91c0-0.44-0.06-0.82-0.19-1.13c-0.13-0.31-0.31-0.56-0.55-0.76c-0.24-0.2-0.53-0.34-0.87-0.43
			c-0.34-0.09-0.73-0.13-1.16-0.13c-0.22,0-0.4,0.01-0.56,0.02c-0.16,0.01-0.35,0.03-0.58,0.05v5.1H124.32z"/>
		<path class="st0" d="M141.94,97.84h-6.15V86.33h5.9l-0.11,0.83l-4.23,0.06v4.08l3.98,0.04l-0.11,0.73l-3.87,0.09v4.79l4.7,0.09
			L141.94,97.84z"/>
		<path class="st0" d="M153.66,94.5c0,0.43-0.09,0.86-0.26,1.28c-0.17,0.42-0.43,0.79-0.76,1.12c-0.33,0.33-0.74,0.6-1.23,0.8
			c-0.48,0.2-1.04,0.3-1.66,0.3c-0.65,0-1.23-0.08-1.75-0.22c-0.51-0.15-0.99-0.35-1.44-0.61l0.56-1.35
			c0.16,0.11,0.36,0.23,0.6,0.35c0.23,0.12,0.48,0.24,0.74,0.34c0.26,0.1,0.53,0.19,0.82,0.26c0.28,0.07,0.55,0.11,0.81,0.11
			c0.36,0,0.67-0.03,0.93-0.1c0.26-0.07,0.47-0.15,0.64-0.25c0.09-0.05,0.18-0.12,0.26-0.19c0.08-0.07,0.16-0.18,0.22-0.3
			c0.06-0.13,0.11-0.29,0.15-0.48c0.04-0.19,0.06-0.42,0.06-0.69c0-0.35-0.08-0.65-0.23-0.89c-0.15-0.24-0.36-0.45-0.61-0.62
			c-0.25-0.17-0.54-0.32-0.87-0.46c-0.32-0.13-0.65-0.27-0.98-0.4c-0.33-0.14-0.66-0.29-0.98-0.46c-0.32-0.17-0.61-0.38-0.87-0.63
			c-0.26-0.25-0.46-0.55-0.61-0.91c-0.15-0.35-0.23-0.78-0.23-1.29c0-0.35,0.08-0.71,0.25-1.06c0.16-0.36,0.4-0.68,0.71-0.97
			c0.31-0.29,0.69-0.52,1.15-0.71c0.45-0.18,0.97-0.28,1.55-0.28c0.46,0,0.9,0.03,1.3,0.08c0.4,0.05,0.81,0.12,1.21,0.2l-0.35,1.36
			c-0.43-0.15-0.87-0.28-1.34-0.39c-0.46-0.11-0.9-0.16-1.3-0.16c-0.31,0-0.59,0.02-0.83,0.07c-0.24,0.04-0.42,0.11-0.55,0.2
			c-0.13,0.11-0.25,0.26-0.35,0.46c-0.1,0.2-0.15,0.5-0.15,0.91c0,0.32,0.08,0.59,0.23,0.82c0.15,0.22,0.36,0.41,0.61,0.58
			c0.25,0.16,0.54,0.31,0.87,0.44c0.32,0.13,0.65,0.27,0.99,0.4c0.34,0.14,0.67,0.3,0.99,0.47c0.32,0.18,0.61,0.39,0.87,0.65
			c0.25,0.26,0.46,0.56,0.61,0.92C153.58,93.56,153.66,93.99,153.66,94.5z"/>
		<path class="st0" d="M169.71,92.04c0,0.91-0.12,1.74-0.35,2.47c-0.24,0.73-0.59,1.36-1.05,1.88c-0.46,0.52-1.05,0.91-1.75,1.19
			c-0.7,0.28-1.52,0.42-2.45,0.42c-0.94,0-1.76-0.14-2.44-0.43c-0.68-0.28-1.24-0.69-1.67-1.21c-0.43-0.52-0.76-1.15-0.96-1.88
			c-0.21-0.73-0.31-1.55-0.31-2.45c0-0.9,0.1-1.71,0.31-2.43c0.21-0.72,0.54-1.33,0.98-1.84c0.44-0.51,1-0.89,1.69-1.16
			c0.68-0.27,1.49-0.4,2.43-0.4c0.93,0,1.74,0.13,2.44,0.4c0.7,0.27,1.28,0.66,1.74,1.16c0.46,0.51,0.81,1.12,1.05,1.84
			C169.59,90.33,169.71,91.14,169.71,92.04z M168.03,92.04c0-0.73-0.07-1.41-0.22-2.01c-0.15-0.61-0.38-1.13-0.7-1.56
			c-0.32-0.43-0.72-0.77-1.21-1.01c-0.49-0.24-1.08-0.36-1.76-0.36c-0.59,0-1.14,0.06-1.65,0.19c-0.51,0.13-0.91,0.32-1.21,0.57
			c-0.17,0.14-0.3,0.35-0.42,0.63c-0.11,0.28-0.2,0.6-0.27,0.97c-0.07,0.37-0.12,0.78-0.15,1.21c-0.03,0.44-0.04,0.89-0.04,1.37
			c0,0.73,0.06,1.4,0.19,2.02c0.12,0.62,0.33,1.15,0.61,1.6c0.28,0.45,0.66,0.8,1.14,1.06c0.48,0.25,1.07,0.38,1.78,0.38
			c0.68,0,1.26-0.06,1.74-0.19c0.48-0.12,0.9-0.35,1.28-0.67c0.16-0.13,0.3-0.35,0.42-0.63c0.11-0.29,0.21-0.62,0.28-1
			c0.07-0.38,0.13-0.79,0.16-1.23C168.02,92.94,168.03,92.49,168.03,92.04z"/>
		<path class="st0" d="M178.62,92.99H177v4.86h-1.56V86.35c0.47-0.04,0.99-0.07,1.56-0.09c0.57-0.02,1.13-0.03,1.67-0.03
			c0.67,0,1.25,0.07,1.74,0.21c0.49,0.14,0.9,0.35,1.23,0.62c0.32,0.27,0.56,0.6,0.72,0.99c0.16,0.39,0.24,0.83,0.24,1.33
			c0,0.48-0.07,0.91-0.2,1.28c-0.13,0.37-0.31,0.7-0.52,0.97c-0.22,0.28-0.47,0.51-0.77,0.71c-0.3,0.2-0.61,0.36-0.93,0.48
			c0.34,0.59,0.68,1.16,0.99,1.69c0.32,0.54,0.64,1.01,0.96,1.42c0.32,0.41,0.65,0.73,0.98,0.97c0.33,0.24,0.68,0.36,1.06,0.36h0.11
			v0.51c-0.16,0.06-0.37,0.11-0.63,0.15c-0.26,0.04-0.51,0.06-0.78,0.06c-0.37,0-0.69-0.05-0.96-0.15c-0.26-0.1-0.52-0.29-0.77-0.57
			c-0.25-0.28-0.52-0.67-0.82-1.16c-0.29-0.49-0.65-1.14-1.08-1.92L178.62,92.99z M177.49,92.19c0.7,0,1.28-0.04,1.71-0.12
			c0.44-0.08,0.77-0.2,1.01-0.35c0.1-0.07,0.2-0.16,0.29-0.27c0.09-0.11,0.17-0.26,0.23-0.43c0.06-0.18,0.11-0.39,0.15-0.64
			c0.03-0.25,0.05-0.55,0.05-0.91c0-0.44-0.06-0.82-0.19-1.13c-0.13-0.31-0.31-0.56-0.55-0.76c-0.24-0.2-0.53-0.34-0.87-0.43
			c-0.34-0.09-0.73-0.13-1.16-0.13c-0.22,0-0.4,0.01-0.56,0.02c-0.16,0.01-0.35,0.03-0.58,0.05v5.1H177.49z"/>
		<path class="st0" d="M190.76,97.84V87.22l-3.54-0.06l0.11-0.83h8.53l-0.11,0.8l-3.43,0.09v10.62H190.76z"/>
		<path class="st0" d="M206.99,94.5c0,0.43-0.09,0.86-0.26,1.28c-0.17,0.42-0.43,0.79-0.76,1.12c-0.33,0.33-0.74,0.6-1.23,0.8
			c-0.48,0.2-1.04,0.3-1.66,0.3c-0.65,0-1.23-0.08-1.75-0.22c-0.51-0.15-0.99-0.35-1.44-0.61l0.56-1.35
			c0.16,0.11,0.36,0.23,0.6,0.35c0.23,0.12,0.48,0.24,0.74,0.34c0.26,0.1,0.53,0.19,0.81,0.26c0.28,0.07,0.55,0.11,0.82,0.11
			c0.36,0,0.67-0.03,0.93-0.1c0.26-0.07,0.47-0.15,0.64-0.25c0.09-0.05,0.18-0.12,0.26-0.19c0.08-0.07,0.16-0.18,0.22-0.3
			c0.06-0.13,0.11-0.29,0.15-0.48c0.04-0.19,0.06-0.42,0.06-0.69c0-0.35-0.08-0.65-0.23-0.89c-0.15-0.24-0.36-0.45-0.61-0.62
			c-0.25-0.17-0.54-0.32-0.87-0.46c-0.32-0.13-0.65-0.27-0.98-0.4c-0.33-0.14-0.66-0.29-0.98-0.46c-0.32-0.17-0.61-0.38-0.87-0.63
			c-0.26-0.25-0.46-0.55-0.61-0.91c-0.15-0.35-0.23-0.78-0.23-1.29c0-0.35,0.08-0.71,0.25-1.06c0.16-0.36,0.4-0.68,0.71-0.97
			c0.31-0.29,0.69-0.52,1.15-0.71c0.45-0.18,0.97-0.28,1.55-0.28c0.46,0,0.9,0.03,1.3,0.08c0.4,0.05,0.81,0.12,1.21,0.2l-0.35,1.36
			c-0.43-0.15-0.87-0.28-1.34-0.39c-0.46-0.11-0.9-0.16-1.3-0.16c-0.31,0-0.59,0.02-0.83,0.07c-0.24,0.04-0.42,0.11-0.55,0.2
			c-0.13,0.11-0.25,0.26-0.35,0.46c-0.1,0.2-0.15,0.5-0.15,0.91c0,0.32,0.08,0.59,0.23,0.82c0.15,0.22,0.36,0.41,0.61,0.58
			c0.25,0.16,0.54,0.31,0.87,0.44c0.32,0.13,0.65,0.27,0.99,0.4c0.34,0.14,0.67,0.3,0.99,0.47c0.32,0.18,0.61,0.39,0.87,0.65
			c0.25,0.26,0.46,0.56,0.61,0.92C206.91,93.56,206.99,93.99,206.99,94.5z"/>
	</g>
	<g>
		<path class="st0" d="M36.2,35.1c-1.39-1.39-2.98-2.58-4.74-3.54c-1.76-0.96-3.58-1.83-5.43-2.59c-1.85-0.76-3.66-1.5-5.43-2.22
			c-1.77-0.72-3.37-1.54-4.77-2.45c-1.4-0.9-2.54-1.98-3.38-3.2c-0.85-1.22-1.28-2.74-1.28-4.51c0-2.25,0.26-3.89,0.81-5
			c0.54-1.09,1.19-1.94,1.92-2.52c0.72-0.51,1.72-0.88,3.06-1.13c1.31-0.25,2.86-0.37,4.58-0.37c2.21,0,4.63,0.3,7.18,0.9
			c2.41,0.56,4.77,1.24,7.02,2.02l0.27,0.09l1.88-7.33l-0.27-0.05c-2.1-0.42-4.22-0.77-6.33-1.04c-2.22-0.29-4.62-0.43-7.15-0.43
			c-3.14,0-5.99,0.51-8.46,1.51c-2.47,1-4.58,2.3-6.28,3.88c-1.69,1.57-3.01,3.35-3.91,5.29c-0.9,1.94-1.35,3.89-1.35,5.81
			c0,2.78,0.42,5.16,1.26,7.07c0.83,1.92,1.96,3.58,3.35,4.95c1.38,1.36,2.98,2.52,4.74,3.45c1.76,0.92,3.58,1.77,5.4,2.53
			c1.82,0.76,3.63,1.5,5.4,2.22c1.77,0.72,3.37,1.56,4.77,2.51c1.4,0.95,2.54,2.11,3.38,3.45c0.85,1.34,1.28,3.01,1.28,4.94
			c0,1.47-0.1,2.76-0.31,3.81c-0.21,1.05-0.49,1.94-0.84,2.64c-0.36,0.71-0.77,1.28-1.22,1.69c-0.46,0.42-0.94,0.77-1.43,1.06
			c-0.91,0.54-2.09,1-3.5,1.36c-1.42,0.37-3.14,0.56-5.11,0.56c-1.45,0-2.96-0.2-4.49-0.59c-1.54-0.39-3.05-0.88-4.49-1.45
			c-1.43-0.57-2.81-1.21-4.08-1.89c-1.12-0.6-2.12-1.18-2.95-1.73L5.03,54.6L2,61.88l0.2,0.11c2.39,1.33,4.96,2.4,7.67,3.18
			c2.8,0.82,6.02,1.23,9.58,1.23c3.39,0,6.44-0.56,9.08-1.66c2.63-1.1,4.89-2.57,6.71-4.37c1.82-1.8,3.22-3.86,4.15-6.12
			c0.94-2.27,1.41-4.62,1.41-6.98c0-2.78-0.42-5.18-1.26-7.13C38.71,38.19,37.58,36.49,36.2,35.1z"/>
		<path class="st0" d="M97.89,21.2c-2.07-2.25-4.69-4-7.78-5.2c-3.09-1.2-6.74-1.8-10.86-1.8c-4.15,0-7.78,0.61-10.81,1.8
			c-3.03,1.2-5.57,2.95-7.54,5.2c-1.97,2.25-3.44,5.01-4.37,8.21c-0.93,3.18-1.4,6.81-1.4,10.79s0.46,7.63,1.37,10.86
			c0.91,3.24,2.36,6.06,4.29,8.38c1.93,2.32,4.45,4.14,7.49,5.4c3.03,1.26,6.68,1.9,10.86,1.9c4.11,0,7.77-0.62,10.88-1.85
			c3.11-1.23,5.74-3.02,7.81-5.32c2.06-2.3,3.64-5.12,4.69-8.38c1.04-3.25,1.57-6.95,1.57-10.99c0-3.98-0.52-7.61-1.55-10.79
			C101.52,26.21,99.95,23.45,97.89,21.2z M79.15,62.25c-3.08,0-5.69-0.56-7.74-1.65c-2.05-1.1-3.71-2.63-4.94-4.57
			c-1.23-1.95-2.13-4.3-2.67-6.98c-0.54-2.7-0.81-5.68-0.81-8.85c0-2.07,0.07-4.09,0.2-6.01c0.13-1.91,0.35-3.7,0.64-5.33
			c0.29-1.61,0.69-3.04,1.17-4.24c0.48-1.18,1.07-2.08,1.76-2.68c1.29-1.09,3.05-1.93,5.25-2.48c2.22-0.55,4.65-0.84,7.23-0.84
			c2.95,0,5.53,0.53,7.65,1.56c2.12,1.03,3.89,2.51,5.26,4.38c1.38,1.88,2.41,4.17,3.06,6.8c0.65,2.65,0.98,5.61,0.98,8.82
			c0,1.96-0.07,3.94-0.22,5.88c-0.15,1.93-0.39,3.75-0.72,5.4c-0.33,1.65-0.74,3.12-1.23,4.37c-0.48,1.22-1.07,2.13-1.76,2.7
			c-1.61,1.39-3.47,2.36-5.53,2.9C84.68,61.98,82.12,62.25,79.15,62.25z"/>
		<path class="st0" d="M158.03,34.07c0,0.93,0.01,1.96,0.02,3.05c0.02,1.14,0.03,2.36,0.05,3.64c0.02,1.3,0.02,2.58,0.02,3.82
			c0.03,2.83,0.08,5.87,0.14,9.04L122.77,14.6l-0.08-0.08h-3.4v51.65h5.08V48.8c0-0.3-0.01-0.85-0.02-1.64
			c-0.02-0.79-0.03-1.73-0.05-2.83c-0.02-1.09-0.03-2.29-0.05-3.59c-0.02-1.31-0.04-2.63-0.07-3.95c-0.06-2.75-0.12-5.93-0.19-9.69
			l35.54,39.23l0.08,0.09h3.5v-51.5h-5.08V34.07z"/>
		<path class="st0" d="M224.85,29.4c-1.03-3.19-2.6-5.95-4.67-8.2c-2.07-2.25-4.69-4-7.78-5.2c-3.09-1.2-6.74-1.8-10.86-1.8
			c-4.15,0-7.78,0.61-10.81,1.8c-3.03,1.2-5.57,2.95-7.54,5.2c-1.97,2.25-3.44,5.01-4.37,8.21c-0.93,3.18-1.4,6.81-1.4,10.79
			c0,3.97,0.46,7.63,1.37,10.86c0.91,3.24,2.36,6.06,4.29,8.38c1.93,2.32,4.45,4.14,7.49,5.4c3.03,1.26,6.68,1.9,10.86,1.9
			c4.11,0,7.77-0.62,10.88-1.85c3.11-1.23,5.74-3.02,7.81-5.32c2.06-2.3,3.64-5.12,4.69-8.38c1.04-3.25,1.57-6.95,1.57-10.99
			C226.4,36.22,225.88,32.59,224.85,29.4z M218.5,40.19c0,1.97-0.07,3.95-0.22,5.88c-0.15,1.93-0.39,3.75-0.72,5.4
			c-0.33,1.65-0.74,3.12-1.23,4.37c-0.48,1.22-1.07,2.13-1.76,2.7c-1.61,1.39-3.47,2.36-5.53,2.9c-2.07,0.54-4.62,0.81-7.6,0.81
			c-3.08,0-5.69-0.56-7.74-1.65c-2.05-1.1-3.71-2.63-4.94-4.57c-1.23-1.95-2.13-4.3-2.67-6.98c-0.54-2.7-0.81-5.68-0.81-8.85
			c0-2.07,0.07-4.09,0.2-6.01c0.13-1.91,0.35-3.7,0.64-5.33c0.29-1.61,0.69-3.03,1.17-4.24c0.48-1.18,1.07-2.08,1.76-2.68
			c1.29-1.09,3.05-1.93,5.25-2.48c2.22-0.55,4.65-0.84,7.23-0.84c2.95,0,5.53,0.53,7.65,1.56c2.12,1.03,3.89,2.51,5.26,4.38
			c1.38,1.88,2.41,4.17,3.06,6.8C218.16,34.02,218.5,36.99,218.5,40.19z"/>
	</g>
</g>
</svg>
